<?xml version="1.0" encoding="UTF-8" standalone="no"?>
<svg
   viewBox="0 0 261418 333333"
   shape-rendering="geometricPrecision"
   text-rendering="geometricPrecision"
   image-rendering="optimizeQuality"
   fill-rule="evenodd"
   clip-rule="evenodd"
   version="1.1"
   id="svg4"
   sodipodi:docname="django-square-1.svg"
   inkscape:version="1.1.1 (3bf5ae0d25, 2021-09-20)"
   xmlns:inkscape="http://www.inkscape.org/namespaces/inkscape"
   xmlns:sodipodi="http://sodipodi.sourceforge.net/DTD/sodipodi-0.dtd"
   xmlns="http://www.w3.org/2000/svg"
   xmlns:svg="http://www.w3.org/2000/svg">
  <defs
     id="defs8">
    <filter
       style="color-interpolation-filters:sRGB;"
       inkscape:label="Greyscale"
       id="filter144"
       x="0"
       y="0"
       width="1"
       height="1">
      <feColorMatrix
         values="0.21 0.72 0.072 -10 0 0.21 0.72 0.072 -10 0 0.21 0.72 0.072 -10 0 0 0 0 1 0 "
         id="feColorMatrix142"
         result="fbSourceGraphic" />
      <feColorMatrix
         result="fbSourceGraphicAlpha"
         in="fbSourceGraphic"
         values="0 0 0 -1 0 0 0 0 -1 0 0 0 0 -1 0 0 0 0 1 0"
         id="feColorMatrix164" />
      <feColorMatrix
         id="feColorMatrix166"
         values="0.21 0.72 0.072 -10 0 0.21 0.72 0.072 -10 0 0.21 0.72 0.072 -10 0 0 0 0 1 0 "
         in="fbSourceGraphic"
         result="fbSourceGraphic" />
      <feColorMatrix
         result="fbSourceGraphicAlpha"
         in="fbSourceGraphic"
         values="0 0 0 -1 0 0 0 0 -1 0 0 0 0 -1 0 0 0 0 1 0"
         id="feColorMatrix186" />
      <feColorMatrix
         id="feColorMatrix188"
         values="0.21 0.72 0.072 -10 0 0.21 0.72 0.072 -10 0 0.21 0.72 0.072 -10 0 0 0 0 1 0 "
         in="fbSourceGraphic"
         result="fbSourceGraphic" />
      <feColorMatrix
         result="fbSourceGraphicAlpha"
         in="fbSourceGraphic"
         values="0 0 0 -1 0 0 0 0 -1 0 0 0 0 -1 0 0 0 0 1 0"
         id="feColorMatrix208" />
      <feColorMatrix
         id="feColorMatrix210"
         values="0.21 0.72 0.072 -10 0 0.21 0.72 0.072 -10 0 0.21 0.72 0.072 -10 0 0 0 0 1 0 "
         in="fbSourceGraphic" />
    </filter>
  </defs>
  <sodipodi:namedview
     id="namedview6"
     pagecolor="#505050"
     bordercolor="#eeeeee"
     borderopacity="1"
     inkscape:pageshadow="0"
     inkscape:pageopacity="0"
     inkscape:pagecheckerboard="0"
     showgrid="false"
     inkscape:zoom="0.01"
     inkscape:cx="130600"
     inkscape:cy="-7950"
     inkscape:window-width="1920"
     inkscape:window-height="1001"
     inkscape:window-x="-9"
     inkscape:window-y="-9"
     inkscape:window-maximized="1"
     inkscape:current-layer="svg4" />
  <path
     d="M117587 0h54579v250154c-27956 5288-48537 7369-70805 7369C34700 257453 0 227673 0 170476c0-55108 36807-90874 93845-90874 8851 0 15594 697 23742 2783V0zm143831 86317v125248c0 43133-3231 63876-12714 81759-8851 17193-20511 28034-44604 40008l-50645-23866c24093-11197 35753-21091 43200-36189 7796-15440 10255-33324 10255-80361V86317h54509v-1zM201409 0h54579v55457h-54579V0zm-81909 127465c-6392-2087-11660-2783-18404-2783-27605 0-43550 16838-43550 46348 0 28731 15243 44595 43200 44595 6040 0 10957-340 18754-1384v-86776z"
     fill="#2ba977"
     id="path2"
     style="filter:url(#filter144)" />
</svg>
