<?xml version="1.0" encoding="UTF-8" standalone="no"?>
<svg
   width="45.44371"
   height="45.998032"
   viewBox="0 0 45.44371 45.998032"
   version="1.1"
   id="svg43"
   sodipodi:docname="plotly-grayscale.svg"
   inkscape:version="1.1.1 (3bf5ae0d25, 2021-09-20)"
   xmlns:inkscape="http://www.inkscape.org/namespaces/inkscape"
   xmlns:sodipodi="http://sodipodi.sourceforge.net/DTD/sodipodi-0.dtd"
   xmlns="http://www.w3.org/2000/svg"
   xmlns:svg="http://www.w3.org/2000/svg">
  <defs
     id="defs47">
    <clipPath
       clipPathUnits="userSpaceOnUse"
       id="clipPath235">
      <rect
         style="fill:#0000ff;fill-rule:evenodd;stroke-width:0.933804"
         id="rect237"
         width="45.464527"
         height="46.008751"
         x="-0.020816354"
         y="-0.010720502" />
    </clipPath>
  </defs>
  <sodipodi:namedview
     id="namedview45"
     pagecolor="#505050"
     bordercolor="#eeeeee"
     borderopacity="1"
     inkscape:pageshadow="0"
     inkscape:pageopacity="0"
     inkscape:pagecheckerboard="0"
     showgrid="false"
     fit-margin-top="0"
     fit-margin-left="0"
     fit-margin-right="0"
     fit-margin-bottom="0"
     inkscape:zoom="8.2110971"
     inkscape:cx="73.558989"
     inkscape:cy="35.378951"
     inkscape:window-width="1920"
     inkscape:window-height="1001"
     inkscape:window-x="-9"
     inkscape:window-y="-9"
     inkscape:window-maximized="1"
     inkscape:current-layer="g41" />
  <g
     fill="none"
     fill-rule="evenodd"
     id="g41"
     clip-path="url(#clipPath235)">
    <path
       fill="#3f4f75"
       d="M 41.909,46 H 3.66 C 1.64,46 0,44.307 0,42.22 V 3.78 C 0,1.692 1.64,0 3.661,0 H 41.91 c 2.022,0 3.661,1.692 3.661,3.78 v 38.44 c 0,2.087 -1.64,3.78 -3.661,3.78"
       id="path29" />
    <path
       fill="#80cfbe"
       d="m 11.383,17.956 a 1.263,1.263 0 0 1 0.153,0.26 1.148,1.148 0 0 0 -0.433,-0.243 C 11.07,17.901 11.008,17.84 10.934,17.826 l -0.022,-0.004 a 1.087,1.087 0 0 0 -0.065,-0.081 c 0.191,0.052 0.377,0.124 0.536,0.215 m -1.368,1.867 c 0.117,-0.007 0.233,-0.03 0.344,-0.071 0.021,0.025 0.044,0.051 0.068,0.075 a 1.051,1.051 0 0 1 -0.436,0.027 l 0.024,-0.03 m 0.448,-1.395 a 0.62,0.62 0 0 0 0.143,0.047 0.838,0.838 0 0 1 0.007,0.107 c -0.081,-0.107 -0.228,-0.114 -0.337,-0.052 l -0.02,-0.08 0.164,-0.05 c 0.013,0.01 0.027,0.02 0.043,0.028 m -0.717,0.143 a 1.102,1.102 0 0 0 0.063,0.247 C 9.759,18.764 9.736,18.682 9.746,18.572 m 1.412,0.65 a 35.186,35.186 0 0 0 -0.068,-0.133 0.803,0.803 0 0 0 0.055,-0.122 c 0.03,0.088 0.032,0.173 0.013,0.255 m 0.718,-1.553 a 3.586,3.586 0 0 0 -0.112,-0.074 2.06,2.06 0 0 0 -0.44,-0.431 c -0.718,-0.517 -1.816,-0.567 -2.338,0.252 -0.026,0.04 -0.05,0.082 -0.072,0.126 a 1.997,1.997 0 0 0 -0.652,1.15 0.251,0.251 0 0 0 -0.176,0.242 c -0.015,0.52 0.252,0.927 0.636,1.199 0.4,0.36 0.993,0.505 1.573,0.52 0.858,0.023 1.45,-0.447 1.716,-1.07 l 0.01,-0.013 c 0.457,-0.6 0.51,-1.433 -0.145,-1.901 m -0.493,-7.283 a 1.263,1.263 0 0 1 0.153,0.26 1.142,1.142 0 0 0 -0.433,-0.243 C 11.07,10.33 11.008,10.27 10.934,10.256 l -0.022,-0.005 a 1.08,1.08 0 0 0 -0.065,-0.08 c 0.191,0.051 0.377,0.123 0.536,0.215 m -1.368,1.867 c 0.117,-0.007 0.233,-0.03 0.344,-0.072 0.021,0.026 0.044,0.051 0.068,0.075 a 1.02,1.02 0 0 1 -0.436,0.028 l 0.024,-0.031 m 0.448,-1.394 a 0.643,0.643 0 0 0 0.143,0.046 0.833,0.833 0 0 1 0.007,0.108 c -0.081,-0.107 -0.228,-0.115 -0.337,-0.052 l -0.02,-0.08 0.164,-0.05 c 0.013,0.01 0.027,0.02 0.043,0.028 M 9.746,11 c 0.005,0.033 0.01,0.066 0.019,0.099 0.012,0.05 0.027,0.099 0.044,0.149 C 9.759,11.193 9.736,11.111 9.746,11 m 1.412,0.65 -0.068,-0.132 c 0.022,-0.04 0.04,-0.08 0.055,-0.122 0.03,0.088 0.032,0.173 0.013,0.254 m 0.718,-1.552 a 2.91,2.91 0 0 0 -0.112,-0.075 2.048,2.048 0 0 0 -0.44,-0.43 C 10.606,9.075 9.508,9.026 8.986,9.845 8.96,9.885 8.936,9.927 8.914,9.97 a 1.997,1.997 0 0 0 -0.652,1.15 0.251,0.251 0 0 0 -0.176,0.242 c -0.015,0.52 0.252,0.927 0.636,1.2 0.4,0.359 0.993,0.504 1.573,0.52 0.858,0.023 1.45,-0.447 1.716,-1.07 l 0.01,-0.013 c 0.457,-0.6 0.51,-1.433 -0.145,-1.901 m 16.144,7.858 a 1.263,1.263 0 0 1 0.153,0.26 1.148,1.148 0 0 0 -0.433,-0.243 C 27.707,17.901 27.645,17.84 27.571,17.826 l -0.022,-0.004 a 1.087,1.087 0 0 0 -0.065,-0.081 c 0.192,0.052 0.377,0.124 0.536,0.215 m -1.368,1.867 c 0.117,-0.007 0.233,-0.03 0.344,-0.071 0.022,0.025 0.044,0.051 0.068,0.075 a 1.051,1.051 0 0 1 -0.436,0.027 l 0.024,-0.03 M 27.1,18.429 a 0.62,0.62 0 0 0 0.144,0.047 0.838,0.838 0 0 1 0.006,0.107 c -0.08,-0.107 -0.228,-0.114 -0.337,-0.052 l -0.02,-0.08 0.164,-0.05 c 0.013,0.01 0.027,0.02 0.043,0.028 m -0.717,0.143 a 1.102,1.102 0 0 0 0.063,0.247 c -0.05,-0.055 -0.073,-0.137 -0.063,-0.247 m 1.412,0.65 a 35.186,35.186 0 0 0 -0.068,-0.133 0.803,0.803 0 0 0 0.056,-0.122 c 0.029,0.088 0.031,0.173 0.012,0.255 m 0.718,-1.553 a 3.586,3.586 0 0 0 -0.111,-0.074 2.06,2.06 0 0 0 -0.441,-0.431 c -0.717,-0.517 -1.816,-0.567 -2.338,0.252 -0.025,0.04 -0.05,0.082 -0.072,0.126 a 1.994,1.994 0 0 0 -0.652,1.15 0.251,0.251 0 0 0 -0.176,0.242 c -0.015,0.52 0.252,0.927 0.636,1.199 0.4,0.36 0.994,0.505 1.573,0.52 0.858,0.023 1.45,-0.447 1.716,-1.07 l 0.01,-0.013 c 0.457,-0.6 0.51,-1.433 -0.145,-1.901 M 28.02,10.386 a 1.263,1.263 0 0 1 0.153,0.26 1.142,1.142 0 0 0 -0.433,-0.243 C 27.707,10.33 27.645,10.27 27.571,10.256 l -0.022,-0.005 a 1.08,1.08 0 0 0 -0.065,-0.08 c 0.192,0.051 0.377,0.123 0.536,0.215 m -1.368,1.867 c 0.117,-0.007 0.233,-0.03 0.344,-0.072 0.022,0.026 0.044,0.051 0.068,0.075 a 1.02,1.02 0 0 1 -0.436,0.028 l 0.024,-0.031 M 27.1,10.859 a 0.643,0.643 0 0 0 0.144,0.046 0.833,0.833 0 0 1 0.006,0.108 c -0.08,-0.107 -0.228,-0.115 -0.337,-0.052 l -0.02,-0.08 0.164,-0.05 c 0.013,0.01 0.027,0.02 0.043,0.028 m -0.717,0.142 a 1.66,1.66 0 0 0 0.063,0.247 c -0.05,-0.054 -0.073,-0.136 -0.063,-0.247 m 1.412,0.65 -0.068,-0.132 c 0.022,-0.04 0.04,-0.08 0.056,-0.122 0.029,0.088 0.031,0.173 0.012,0.254 m 0.718,-1.552 a 2.91,2.91 0 0 0 -0.111,-0.075 2.048,2.048 0 0 0 -0.441,-0.43 c -0.717,-0.518 -1.816,-0.567 -2.338,0.252 -0.025,0.04 -0.05,0.082 -0.072,0.125 a 1.994,1.994 0 0 0 -0.652,1.15 0.251,0.251 0 0 0 -0.176,0.242 c -0.015,0.52 0.252,0.927 0.636,1.2 0.4,0.359 0.994,0.504 1.573,0.52 0.858,0.023 1.45,-0.447 1.716,-1.07 L 28.658,12 c 0.457,-0.6 0.51,-1.433 -0.145,-1.901"
       id="path31"
       style="fill:#b3b3b3" />
    <path
       fill="#ffffff"
       d="m 10.656,24.81 c -1.116,0 -2.02,0.92 -2.02,2.056 v 8.221 c 0,1.135 0.904,2.055 2.02,2.055 1.116,0 2.02,-0.92 2.02,-2.055 v -8.221 c 0,-1.135 -0.904,-2.055 -2.02,-2.055 M 26.818,24.81 c -1.116,0 -2.02,0.92 -2.02,2.056 v 8.221 c 0,1.135 0.904,2.055 2.02,2.055 1.115,0 2.02,-0.92 2.02,-2.055 v -8.221 c 0,-1.135 -0.905,-2.055 -2.02,-2.055 M 18.737,16.59 c -1.116,0 -2.02,0.92 -2.02,2.054 v 16.443 c 0,1.135 0.904,2.055 2.02,2.055 1.116,0 2.02,-0.92 2.02,-2.055 V 18.644 c 0,-1.135 -0.904,-2.055 -2.02,-2.055 m 16.162,0.001 c -1.116,0 -2.02,0.92 -2.02,2.054 v 16.443 c 0,1.135 0.904,2.055 2.02,2.055 1.115,0 2.02,-0.92 2.02,-2.055 V 18.644 c 0,-1.135 -0.905,-2.055 -2.02,-2.055"
       id="path33"
       style="fill:#f2f2f2" />
    <path
       fill="#80cfbe"
       d="m 36.174,12.043 c -0.12,0.187 -0.263,0.316 -0.416,0.394 0.1,-0.156 0.198,-0.342 0.283,-0.546 a 2.23,2.23 0 0 0 0.056,-0.126 c 0.064,-0.058 0.1,-0.144 0.075,-0.227 0.002,-0.003 0.002,-0.007 0.003,-0.01 0.126,-0.094 0.215,-0.268 0.248,-0.455 l 0.021,-0.033 c 0.01,0.351 -0.078,0.703 -0.27,1.003 M 33.518,11.37 a 2.518,2.518 0 0 1 -0.009,-0.257 c 0.079,0.295 0.198,0.584 0.32,0.837 0.07,0.188 0.16,0.386 0.274,0.53 a 1.13,1.13 0 0 1 -0.165,-0.127 c -0.269,-0.25 -0.386,-0.627 -0.42,-0.983 m 1.384,-0.405 a 3.724,3.724 0 0 1 0.01,-0.564 c 0.024,0.01 0.048,0.021 0.073,0.036 l 0.039,0.027 c 0.034,0.178 0.023,0.421 -0.122,0.5 m 1.823,-0.785 A 0.407,0.407 0 0 0 36.565,9.869 2.293,2.293 0 0 0 35.883,9.152 C 35.5,8.897 35.068,8.772 34.798,9.105 A 3.714,3.714 0 0 0 34.494,9.09 C 34.432,9.089 34.375,9.094 34.321,9.102 33.999,8.975 33.655,8.972 33.506,9.384 a 1.743,1.743 0 0 0 -0.093,0.507 0.704,0.704 0 0 0 -0.158,0.164 c -0.313,0.449 -0.268,1.24 -0.144,1.74 0.21,0.852 1.117,1.522 1.903,1.27 a 0.462,0.462 0 0 0 0.184,-0.074 c 0.42,0.079 0.878,-0.062 1.243,-0.507 0.545,-0.663 0.601,-1.56 0.284,-2.305 m -16.707,1.864 c -0.12,0.187 -0.264,0.316 -0.417,0.394 0.101,-0.156 0.198,-0.342 0.284,-0.546 0.02,-0.041 0.038,-0.083 0.055,-0.126 0.064,-0.058 0.1,-0.144 0.076,-0.227 a 0.35,0.35 0 0 1 0.003,-0.01 c 0.126,-0.094 0.214,-0.268 0.248,-0.455 l 0.02,-0.033 c 0.01,0.351 -0.077,0.703 -0.27,1.003 M 17.362,11.37 a 2.518,2.518 0 0 1 -0.01,-0.257 c 0.08,0.295 0.198,0.584 0.32,0.837 0.07,0.188 0.16,0.386 0.275,0.53 a 1.13,1.13 0 0 1 -0.165,-0.127 c -0.269,-0.25 -0.387,-0.627 -0.42,-0.983 m 1.384,-0.405 a 3.665,3.665 0 0 1 0.01,-0.564 c 0.023,0.01 0.047,0.021 0.072,0.036 0.014,0.008 0.026,0.017 0.04,0.027 0.033,0.178 0.022,0.421 -0.122,0.5 m 1.822,-0.785 A 0.407,0.407 0 0 0 20.409,9.869 2.293,2.293 0 0 0 19.726,9.152 C 19.344,8.897 18.911,8.772 18.642,9.105 A 3.714,3.714 0 0 0 18.338,9.09 C 18.276,9.089 18.218,9.094 18.165,9.102 17.842,8.975 17.498,8.972 17.349,9.384 a 1.758,1.758 0 0 0 -0.093,0.507 0.704,0.704 0 0 0 -0.158,0.164 c -0.312,0.449 -0.268,1.24 -0.144,1.74 0.21,0.852 1.118,1.522 1.904,1.27 a 0.462,0.462 0 0 0 0.184,-0.074 c 0.42,0.079 0.877,-0.062 1.243,-0.507 0.544,-0.663 0.6,-1.56 0.283,-2.305"
       id="path35"
       style="fill:#b3b3b3" />
    <g
       fill="#3f4f75"
       id="g39">
      <path
         d="M 74.759,32.856 A 1.862,1.862 0 0 1 72.907,30.983 V 12.26 c 0,-1.035 0.829,-1.873 1.852,-1.873 1.022,0 1.851,0.838 1.851,1.873 v 18.723 a 1.862,1.862 0 0 1 -1.851,1.873 m 38.885,0 a 1.862,1.862 0 0 1 -1.851,-1.873 V 12.26 c 0,-1.035 0.829,-1.873 1.851,-1.873 1.023,0 1.852,0.838 1.852,1.873 v 18.723 a 1.862,1.862 0 0 1 -1.852,1.873 M 65.5,25.026 c 0,2.256 -1.658,4.085 -3.704,4.085 -2.045,0 -3.703,-1.83 -3.703,-4.085 v -3.064 c 0,-2.256 1.658,-4.085 3.703,-4.085 2.046,0 3.704,1.829 3.704,4.085 z M 61.796,14.132 a 6.953,6.953 0 0 0 -3.842,1.163 1.852,1.852 0 0 0 -1.713,-1.163 1.862,1.862 0 0 0 -1.851,1.872 v 18.724 c 0,1.034 0.829,1.873 1.851,1.873 a 1.862,1.862 0 0 0 1.852,-1.873 V 31.78 a 6.937,6.937 0 0 0 3.703,1.076 c 4.091,0 7.407,-3.593 7.407,-8.025 v -2.675 c 0,-4.431 -3.316,-8.024 -7.407,-8.024 z m 29.628,10.894 c 0,2.256 -1.658,4.085 -3.704,4.085 -2.045,0 -3.703,-1.83 -3.703,-4.085 v -3.064 c 0,-2.256 1.658,-4.085 3.703,-4.085 2.046,0 3.704,1.829 3.704,4.085 z M 87.72,14.132 c -4.09,0 -7.406,3.593 -7.406,8.024 v 2.675 c 0,4.432 3.316,8.025 7.406,8.025 4.091,0 7.407,-3.593 7.407,-8.025 v -2.675 c 0,-4.431 -3.316,-8.024 -7.407,-8.024 z m 18.518,14.979 c -2.042,0 -3.704,-1.68 -3.704,-3.745 v -7.49 h 3.704 a 1.862,1.862 0 0 0 1.851,-1.872 1.862,1.862 0 0 0 -1.851,-1.872 h -3.704 v -1.873 a 1.862,1.862 0 0 0 -1.851,-1.872 1.862,1.862 0 0 0 -1.852,1.872 v 13.107 c 0,4.13 3.323,7.49 7.407,7.49 a 1.862,1.862 0 0 0 1.851,-1.873 1.862,1.862 0 0 0 -1.851,-1.872 m 26.009,-14.827 a 1.844,1.844 0 0 0 -2.432,0.983 l -3.84,9.056 -3.839,-9.056 a 1.844,1.844 0 0 0 -2.432,-0.983 1.88,1.88 0 0 0 -0.972,2.458 l 5.229,12.333 -0.622,1.467 a 3.71,3.71 0 0 1 -3.335,2.308 1.864,1.864 0 0 0 -1.809,1.917 1.862,1.862 0 0 0 1.85,1.828 h 0.045 a 7.41,7.41 0 0 0 6.661,-4.597 l 6.468,-15.256 a 1.88,1.88 0 0 0 -0.972,-2.458"
         id="path37" />
    </g>
    <path
       style="fill:#280b0b;stroke-width:0.121786"
       d="M 2.4143213,45.71479 C 1.718721,45.467292 0.84716604,44.670143 0.4509345,43.919021 L 0.12178641,43.295067 V 23.017631 2.7401941 L 0.39943509,2.176654 C 0.78322729,1.3976755 1.4430095,0.75494361 2.2449401,0.37884139 L 2.9228737,0.0608932 H 22.834951 42.747028 l 0.570911,0.26644442 c 0.711258,0.33194478 1.509491,1.11794448 1.81203,1.78425918 0.22266,0.4903872 0.230205,1.1670106 0.232793,20.8794992 0.0023,17.352907 -0.02303,20.4342 -0.170718,20.787674 -0.235635,0.563952 -1.108707,1.488747 -1.708823,1.810058 l -0.49262,0.263754 -20.033864,0.02158 C 5.5058588,45.892954 2.8573056,45.872406 2.4143213,45.71479 Z m 9.2160327,-8.752488 c 0.194159,-0.100403 0.50656,-0.383782 0.694224,-0.62973 l 0.341208,-0.447179 0.0365,-4.576638 c 0.02007,-2.517152 0.0033,-4.758022 -0.03733,-4.979711 -0.0406,-0.22169 -0.268449,-0.618496 -0.506321,-0.881792 -0.785196,-0.869117 -1.989308,-0.93242 -2.8552374,-0.150104 -0.2630666,0.237665 -0.5295769,0.622837 -0.6018769,0.869857 -0.084863,0.289946 -0.1167696,2.044454 -0.092221,5.071208 l 0.037534,4.627883 0.2908944,0.407858 c 0.4336732,0.608047 0.9433588,0.869914 1.6941829,0.870444 0.354984,2.44e-4 0.804283,-0.08169 0.998442,-0.182096 z m 8.169475,-0.09437 c 0.226005,-0.152304 0.535532,-0.46183 0.687835,-0.687835 l 0.276918,-0.410919 v -8.91528 -8.91528 L 20.487664,17.5277 c -0.152303,-0.226005 -0.46183,-0.535531 -0.687835,-0.687835 -0.858385,-0.578466 -2.270075,-0.234983 -2.84709,0.692735 l -0.268001,0.430891 v 8.899301 8.899302 l 0.322641,0.487543 c 0.402075,0.607578 0.956839,0.888854 1.760164,0.89244 0.447972,0.002 0.736037,-0.0745 1.032286,-0.274145 z m 7.990381,0.0752 c 0.233793,-0.110943 0.570899,-0.421955 0.749124,-0.69114 l 0.324044,-0.489427 0.03829,-4.515228 c 0.02556,-3.014415 -0.0059,-4.665207 -0.09458,-4.966439 -0.40903,-1.388962 -1.950011,-1.938393 -3.182459,-1.134693 -0.836712,0.545635 -0.841093,0.576252 -0.841093,5.87927 0,4.732432 6.09e-4,4.744676 0.276918,5.154618 0.618144,0.917264 1.742464,1.231542 2.729759,0.763039 z m 8.198911,-0.07231 c 0.22144,-0.15071 0.517265,-0.428723 0.657389,-0.617805 0.252297,-0.340448 0.255089,-0.430022 0.287544,-9.225614 0.03199,-8.67012 0.02698,-8.893188 -0.210371,-9.358423 -0.385616,-0.755871 -0.892644,-1.045148 -1.831878,-1.045148 -0.956399,0 -1.488506,0.313777 -1.838313,1.08403 -0.214187,0.471626 -0.226854,0.976954 -0.229381,9.15067 l -0.0027,8.651476 0.27402,0.542414 c 0.385664,0.763404 0.926691,1.09242 1.796354,1.09242 0.519943,0 0.795979,-0.06893 1.097316,-0.27402 z M 11.22833,20.501467 c 0.601841,-0.285592 1.127706,-1.160857 1.130676,-1.881928 0.0021,-0.51645 -0.0457,-0.606732 -0.592244,-1.117959 -1.33728,-1.25087 -2.5714065,-0.950934 -3.4668392,0.842561 -0.2662659,0.533312 -0.2939956,0.688162 -0.1904122,1.063309 0.2841125,1.028971 1.9928064,1.628346 3.1188194,1.094017 z m 16.693722,-0.04155 c 0.569003,-0.346923 1.124006,-1.271674 1.124006,-1.872833 0,-0.422592 -0.07816,-0.561024 -0.601614,-1.065568 -1.367468,-1.318064 -2.649604,-0.990458 -3.5404,0.90463 -0.320072,0.680925 -0.253515,1.130252 0.237036,1.60023 0.699338,0.670008 2.048231,0.880294 2.780972,0.433541 z M 11.196345,12.911968 c 0.667213,-0.324699 1.164975,-1.11883 1.164975,-1.858606 0,-0.48903 -0.0588,-0.608791 -0.517592,-1.0542903 C 10.820271,9.0052793 9.8103462,8.9014768 9.0255953,9.7094173 8.5110913,10.239125 7.9541563,11.353765 8.0517629,11.658428 c 0.1656069,0.516916 0.3623424,0.788256 0.7413761,1.022511 0.83843,0.518178 1.652365,0.596424 2.403206,0.231029 z m 8.825165,-0.105309 c 0.468214,-0.335967 0.743072,-0.973701 0.743072,-1.724096 0,-0.797612 -0.268407,-1.3677211 -0.875108,-1.8587644 -0.4117,-0.3332173 -0.450584,-0.3402543 -1.429177,-0.2586428 -0.935238,0.077996 -1.014716,0.1061446 -1.130468,0.4003788 -0.06848,0.1740665 -0.206361,0.4718125 -0.306405,0.6616574 -0.228948,0.434454 -0.221773,1.671708 0.01231,2.121644 0.18861,0.362538 0.636095,0.808087 0.927765,0.92375 0.336468,0.133426 1.757328,-0.05017 2.058015,-0.265927 z m 7.806684,0.132958 c 0.589129,-0.294304 1.217864,-1.261536 1.217864,-1.873539 0,-0.968568 -1.478669,-2.0702087 -2.517212,-1.8753769 -0.565177,0.1060278 -1.164024,0.7120786 -1.587611,1.6067099 -0.37282,0.787407 -0.313468,1.14467 0.283739,1.707908 0.684732,0.645785 1.805559,0.832773 2.60322,0.434298 z m 8.284724,-0.09283 C 36.9771,12.3999 37.214694,10.746764 36.557475,9.753639 36.067989,9.0139744 35.690982,8.8670141 34.571377,8.9794428 c -0.636221,0.063888 -0.961083,0.1516921 -1.02236,0.276324 -0.576122,1.1717942 -0.635371,1.3832492 -0.568669,2.0295342 0.07704,0.746395 0.370236,1.287778 0.889063,1.641618 0.295472,0.201513 0.478383,0.228612 1.129455,0.167337 0.427288,-0.04021 0.928612,-0.151575 1.114052,-0.247471 z"
       id="path87" />
    <path
       style="fill:#1a1a1a;stroke-width:0.121786"
       d="M 2.7300303,45.678365 C 1.8640409,45.509077 0.93648534,44.721459 0.42700011,43.722785 0.18533363,43.249079 0.18267961,43.024172 0.18267961,23.018433 V 2.7929901 L 0.47624635,2.213664 C 0.83217749,1.5112677 1.7168466,0.67080768 2.4343299,0.35343071 2.9494761,0.125557 3.4702766,0.12043277 22.992379,0.1511569 l 20.029514,0.0315227 0.66485,0.45790983 c 0.757811,0.52193557 1.361218,1.29912277 1.477928,1.90356837 0.04385,0.2270927 0.07972,9.5040292 0.07971,20.6154132 -1.6e-5,16.885958 -0.02757,20.268448 -0.167818,20.604117 -0.231736,0.55462 -0.885718,1.273808 -1.531316,1.683994 l -0.541435,0.344006 -19.918681,-0.014 C 12.129853,45.76998 2.9700593,45.725287 2.7300303,45.678365 Z M 27.847679,36.950047 c 0.178174,-0.09101 0.493296,-0.370916 0.700272,-0.622012 l 0.37632,-0.456542 v -4.76366 c 0,-4.737692 -0.0015,-4.76655 -0.280442,-5.293984 -0.339536,-0.64207 -1.100975,-1.092579 -1.839528,-1.088364 -0.741926,0.0042 -1.677396,0.553769 -1.861661,1.093619 -0.102466,0.3002 -0.147387,1.843163 -0.152233,5.228893 -0.0068,4.757241 -0.0043,4.806762 0.261579,5.194808 0.620128,0.905018 1.816151,1.207583 2.795693,0.707242 z m -16.020613,-0.07921 c 0.193104,-0.15071 0.47387,-0.411029 0.623924,-0.578485 l 0.272826,-0.304466 -0.02901,-4.993243 -0.02901,-4.993242 -0.304466,-0.407984 c -0.677617,-0.908005 -1.861627,-1.127381 -2.816466,-0.52184 -0.9691558,0.614621 -0.9589124,0.550655 -0.9589124,5.987991 0,4.592061 0.00963,4.793364 0.247748,5.178646 0.4033951,0.652707 0.9100182,0.902232 1.8366434,0.904591 0.652237,0.0017 0.872486,-0.05012 1.156733,-0.271968 z m 8.027565,0.01098 c 0.211132,-0.144671 0.502243,-0.435782 0.646914,-0.646914 l 0.263037,-0.383881 V 26.8539 17.856779 l -0.263037,-0.383878 c -0.827129,-1.207116 -2.482366,-1.27838 -3.449489,-0.148514 l -0.428212,0.500269 v 9.009224 9.009224 l 0.318573,0.41767 c 0.4947,0.648584 0.973791,0.883098 1.805153,0.883622 0.541868,3.66e-4 0.819428,-0.06549 1.107061,-0.262581 z m 16.245353,-0.03428 c 0.859796,-0.634336 0.797564,0.09448 0.836248,-9.793641 l 0.03495,-8.93399 -0.265629,-0.548715 C 36.506689,17.160385 36.314251,16.965402 35.939886,16.795389 34.9203,16.33236 33.649956,16.60729 33.158687,17.3973 l -0.276358,0.444408 -0.03475,8.829515 c -0.01911,4.856233 -0.0046,8.951818 0.03221,9.1013 0.08456,0.343222 0.761681,1.121786 1.091964,1.255548 0.137627,0.05574 0.582107,0.104817 0.987735,0.109063 0.598277,0.0063 0.813583,-0.04841 1.1405,-0.289601 z m -24.834989,-16.3264 c 0.624417,-0.322898 1.015286,-0.971674 1.07394,-1.782552 0.05142,-0.710848 0.04393,-0.73142 -0.430915,-1.183125 -1.392629,-1.324776 -2.7192694,-1.086097 -3.5701661,0.64232 -0.2861766,0.581307 -0.3644213,0.872728 -0.305883,1.139251 0.088146,0.401328 0.6326452,0.976664 1.1353027,1.1996 0.4750981,0.210712 1.6774604,0.201832 2.0977214,-0.01549 z m 16.699407,-0.02802 c 0.568641,-0.335905 0.994444,-1.053372 1.054428,-1.776681 0.05223,-0.629798 0.04765,-0.639615 -0.565631,-1.213268 -0.6773,-0.633535 -1.047956,-0.818669 -1.637672,-0.817976 -0.724459,8.53e-4 -1.54416,0.72485 -1.967332,1.737645 -0.379191,0.90753 -0.114705,1.562631 0.817101,2.023867 0.658702,0.326051 1.787151,0.348832 2.299106,0.04641 z M 11.223265,12.953113 c 0.666542,-0.316295 1.054757,-0.923167 1.113939,-1.741353 0.04669,-0.645442 0.02093,-0.733285 -0.333355,-1.136791 C 11.276448,9.246505 10.1897,8.9281716 9.4299974,9.3210292 8.7635465,9.6656644 7.880995,11.170576 8.0201612,11.725058 c 0.2811962,1.120375 2.0228558,1.78812 3.2031038,1.228055 z m 8.703882,-0.04013 c 0.511097,-0.240717 0.837435,-0.951725 0.837435,-1.824562 0,-0.859498 -0.09942,-1.1036857 -0.70894,-1.7413144 C 19.634586,8.9066364 19.590738,8.890839 18.82173,8.9025473 c -1.207102,0.018378 -1.366071,0.091594 -1.69759,0.7818526 -0.217575,0.4530161 -0.29147,0.8131291 -0.291929,1.4226531 -6.09e-4,0.878387 0.163512,1.269214 0.7477,1.779967 0.287388,0.251261 0.415955,0.276345 1.175195,0.229292 0.468878,-0.02906 0.996296,-0.120557 1.172041,-0.203329 z m 8.319775,-0.239904 C 29.365076,11.589321 29.294981,10.355262 28.069191,9.5440721 27.73533,9.3231344 27.355678,9.1959273 26.923076,9.1600526 c -0.607342,-0.050365 -0.677191,-0.026265 -1.142672,0.3942691 -0.556811,0.5030453 -1.118657,1.5251553 -1.118657,2.0350613 0,0.401862 0.556758,1.079176 1.125237,1.368889 0.283446,0.144452 0.631559,0.191459 1.21633,0.164246 0.741266,-0.03449 0.859627,-0.07727 1.243608,-0.449439 z m 7.97553,0.144052 c 0.540247,-0.39562 0.757558,-0.965687 0.712723,-1.869675 -0.06732,-1.3572916 -0.743514,-2.069129 -1.940374,-2.0426392 -1.194862,0.026445 -1.347201,0.100055 -1.716666,0.8294872 -0.585109,1.155179 -0.408295,2.418867 0.438095,3.131057 0.354865,0.2986 0.435315,0.314238 1.285652,0.249928 0.61044,-0.04617 1.009618,-0.143678 1.22057,-0.298158 z"
       id="path126" />
    <path
       style="fill:#000000;stroke-width:0.121786"
       d="M 13.944543,45.671426 C 1.0469034,45.601476 2.1782446,45.689888 1.1931822,44.674933 0.1765753,43.627473 0.26876949,45.648716 0.20780626,23.071798 L 0.15352733,2.9703134 0.42297624,2.4421499 C 0.79310052,1.7166464 1.6853222,0.7914551 2.3033845,0.49225628 2.8142606,0.2449454 2.9281608,0.24357281 22.939495,0.24357281 h 20.1224 l 0.636143,0.46994615 c 0.349877,0.25847039 0.79967,0.70580564 0.999537,0.99407844 l 0.363395,0.5241323 0.06835,5.1865816 c 0.117059,8.8825077 0.0345,35.9582117 -0.110775,36.3270877 -0.173917,0.441617 -0.922879,1.255788 -1.555779,1.691235 l -0.516054,0.355054 -8.746679,-0.02892 c -4.810672,-0.01591 -13.925644,-0.05701 -20.255493,-0.09134 z m 13.512915,-8.525031 c 0.230596,-0.06613 0.654964,-0.351564 0.94304,-0.634289 l 0.523773,-0.514044 -0.0027,-4.815653 c -0.0031,-5.561475 -0.0025,-5.558134 -1.026566,-6.158258 -0.476005,-0.278957 -0.667479,-0.322261 -1.221722,-0.276298 -0.886437,0.07351 -1.587465,0.535192 -1.760889,1.159684 -0.07871,0.283414 -0.127788,2.268228 -0.128207,5.184491 -7.31e-4,5.147399 0.0025,5.173645 0.697755,5.6605 0.677299,0.474279 1.277712,0.593988 1.97549,0.393867 z M 11.755737,36.943497 c 0.165614,-0.110747 0.451828,-0.340215 0.63603,-0.509931 l 0.334912,-0.308574 V 31.060496 25.996001 L 12.339982,25.52687 c -0.456452,-0.553756 -0.992029,-0.804985 -1.710206,-0.802226 -0.609068,0.0023 -1.3541111,0.385961 -1.7279184,0.889703 -0.2476617,0.333748 -0.2559726,0.486665 -0.2879266,5.297709 -0.031754,4.780878 -0.024343,4.967914 0.2120131,5.350959 0.3877292,0.628365 0.9130365,0.880856 1.8337149,0.881383 0.537427,3.66e-4 0.892509,-0.06478 1.096078,-0.200901 z m 8.034307,0.01881 c 0.194158,-0.100403 0.492858,-0.365895 0.663777,-0.589981 l 0.310761,-0.407429 v -9.103685 c 0,-8.93538 -0.0045,-9.110065 -0.245751,-9.448812 -0.802745,-1.127349 -2.267863,-1.222175 -3.357987,-0.217335 l -0.537,0.49499 v 9.154006 9.154006 l 0.517593,0.497906 c 0.284675,0.273848 0.599798,0.52755 0.700271,0.563781 0.387995,0.139913 1.607258,0.07893 1.948336,-0.09745 z m 16.332062,-0.09601 c 0.813928,-0.547906 0.775358,-0.07942 0.816124,-9.913152 0.03651,-8.80565 0.03392,-8.918899 -0.214765,-9.40636 -0.649824,-1.273759 -2.880617,-1.328997 -3.646184,-0.09028 -0.253924,0.410857 -0.255845,0.48189 -0.255845,9.45963 v 9.045663 l 0.591534,0.591535 0.591535,0.591534 h 0.851892 c 0.685762,0 0.932593,-0.05432 1.265709,-0.278566 z M 11.638196,20.27687 c 0.503149,-0.473342 0.723124,-1.004858 0.723124,-1.747254 0,-0.546589 -0.04355,-0.638017 -0.500595,-1.05093 -1.423665,-1.286196 -2.6773549,-1.020826 -3.5658152,0.75478 -0.4025568,0.804517 -0.4001466,1.135926 0.011822,1.625523 0.6008256,0.714041 0.9616536,0.861424 2.0072602,0.81988 0.847448,-0.03367 0.97329,-0.07187 1.324204,-0.401999 z m 16.446007,0.151817 c 0.529022,-0.351564 0.961855,-1.201691 0.961855,-1.889181 0,-0.473666 -0.05884,-0.58305 -0.559309,-1.039826 -0.7349,-0.670736 -0.992072,-0.805447 -1.547555,-0.810626 -0.588526,-0.0055 -1.040745,0.229618 -1.543885,0.802663 -1.417391,1.614319 -0.659811,3.201409 1.531923,3.209297 0.571164,0.0021 0.838926,-0.06097 1.156971,-0.272327 z M 11.388267,12.878912 c 0.656744,-0.446975 0.890627,-0.861026 0.949998,-1.68181 0.0512,-0.7079 0.03513,-0.76049 -0.35747,-1.169279 C 11.003191,9.0098991 9.8077416,8.8500509 9.0033507,9.6296974 8.504113,10.113578 7.9770096,11.117401 7.9770096,11.584276 c 0,0.436401 0.5362412,1.060068 1.1519325,1.339739 0.7119511,0.323394 1.7482889,0.302706 2.2593249,-0.0451 z m 8.305435,0.147279 c 0.279303,-0.07757 0.557943,-0.274682 0.730719,-0.516913 0.239793,-0.336188 0.279268,-0.541382 0.279268,-1.45167 V 9.9974688 L 20.16074,9.4439381 C 19.623039,8.8957579 19.609873,8.8904076 18.798571,8.8904076 c -1.120185,0 -1.408694,0.1327768 -1.695028,0.7800819 -0.525077,1.1870235 -0.406532,2.3621025 0.310646,3.0792805 0.364712,0.364711 0.471109,0.403097 1.115613,0.402482 0.391847,-3.65e-4 0.915603,-0.0571 1.1639,-0.126061 z m 8.507385,-0.320806 c 0.607312,-0.54867 0.844971,-0.987983 0.844971,-1.561929 0,-1.096201 -1.070498,-2.0094756 -2.355413,-2.0094756 -0.477955,0 -0.590298,0.058429 -1.030444,0.5359317 -0.601944,0.6530319 -0.998454,1.4018499 -0.998454,1.8856009 0,0.409037 0.462525,1.024487 1.029994,1.37054 0.263992,0.160987 0.606846,0.226099 1.192257,0.226423 0.77576,4.87e-4 0.849408,-0.02457 1.317089,-0.447091 z m 7.965022,0.157198 c 0.542077,-0.355182 0.79541,-0.904421 0.792935,-1.719127 -0.0028,-0.922984 -0.330218,-1.6757366 -0.872741,-2.0065043 -0.446432,-0.2721831 -1.66136,-0.3408337 -2.226859,-0.1258309 -0.444649,0.1690548 -0.913482,1.2107362 -0.915031,2.0330672 -0.0015,0.793726 0.153819,1.208559 0.645657,1.724494 0.385679,0.404575 0.394727,0.407008 1.321914,0.355647 0.604668,-0.0335 1.046508,-0.12571 1.254125,-0.261746 z"
       id="path202" />
  </g>
</svg>
